<mxfile host="app.diagrams.net" agent="Mozilla/5.0 (Windows NT 10.0; Win64; x64) AppleWebKit/537.36 (KHTML, like Gecko) Chrome/140.0.0.0 Safari/537.36" version="28.2.5">
  <diagram name="หน้า-1" id="DDYYQTp5KiVwwcD2y10V">
    <mxGraphModel dx="2230" dy="1855" grid="1" gridSize="10" guides="1" tooltips="1" connect="1" arrows="1" fold="1" page="1" pageScale="1" pageWidth="827" pageHeight="1169" math="0" shadow="0">
      <root>
        <mxCell id="0" />
        <mxCell id="1" parent="0" />
        <mxCell id="iIrVy1uz0uTO4pPe2vCX-78" value="" style="edgeStyle=orthogonalEdgeStyle;rounded=0;orthogonalLoop=1;jettySize=auto;html=1;" edge="1" parent="1" source="2" target="iIrVy1uz0uTO4pPe2vCX-77">
          <mxGeometry relative="1" as="geometry" />
        </mxCell>
        <mxCell id="2" value="Start" style="ellipse;whiteSpace=wrap;html=1;" vertex="1" parent="1">
          <mxGeometry x="340" width="120" height="40" as="geometry" />
        </mxCell>
        <mxCell id="6" value="แสดงผล &quot;Old Series : 15, 7, 25, 3, 73, 32, 45&quot;" style="shape=parallelogram;perimeter=parallelogramPerimeter;whiteSpace=wrap;html=1;fixedSize=1;" vertex="1" parent="1">
          <mxGeometry x="235" y="200" width="330" height="40" as="geometry" />
        </mxCell>
        <mxCell id="7" value="" style="endArrow=classic;html=1;rounded=0;" edge="1" parent="1" source="6" target="8">
          <mxGeometry width="50" height="50" relative="1" as="geometry">
            <mxPoint x="400" y="380" as="sourcePoint" />
            <mxPoint x="450" y="330" as="targetPoint" />
          </mxGeometry>
        </mxCell>
        <mxCell id="iIrVy1uz0uTO4pPe2vCX-95" value="" style="edgeStyle=orthogonalEdgeStyle;rounded=0;orthogonalLoop=1;jettySize=auto;html=1;" edge="1" parent="1" source="8" target="iIrVy1uz0uTO4pPe2vCX-93">
          <mxGeometry relative="1" as="geometry" />
        </mxCell>
        <mxCell id="8" value="กำหนด i = 0" style="rounded=0;whiteSpace=wrap;html=1;" vertex="1" parent="1">
          <mxGeometry x="340" y="280" width="120" height="40" as="geometry" />
        </mxCell>
        <mxCell id="iIrVy1uz0uTO4pPe2vCX-80" value="" style="edgeStyle=orthogonalEdgeStyle;rounded=0;orthogonalLoop=1;jettySize=auto;html=1;" edge="1" parent="1" source="10" target="13">
          <mxGeometry relative="1" as="geometry" />
        </mxCell>
        <mxCell id="iIrVy1uz0uTO4pPe2vCX-98" style="edgeStyle=orthogonalEdgeStyle;rounded=0;orthogonalLoop=1;jettySize=auto;html=1;entryX=0.5;entryY=0;entryDx=0;entryDy=0;" edge="1" parent="1" source="10" target="37">
          <mxGeometry relative="1" as="geometry">
            <Array as="points">
              <mxPoint x="680" y="440" />
              <mxPoint x="680" y="1440" />
              <mxPoint x="400" y="1440" />
            </Array>
          </mxGeometry>
        </mxCell>
        <mxCell id="10" value="i &amp;lt; n ?" style="rhombus;whiteSpace=wrap;html=1;" vertex="1" parent="1">
          <mxGeometry x="360" y="400" width="80" height="80" as="geometry" />
        </mxCell>
        <mxCell id="iIrVy1uz0uTO4pPe2vCX-89" value="" style="edgeStyle=orthogonalEdgeStyle;rounded=0;orthogonalLoop=1;jettySize=auto;html=1;" edge="1" parent="1" source="13" target="iIrVy1uz0uTO4pPe2vCX-88">
          <mxGeometry relative="1" as="geometry" />
        </mxCell>
        <mxCell id="13" value="กำหนด j = i + 1" style="rounded=0;whiteSpace=wrap;html=1;" vertex="1" parent="1">
          <mxGeometry x="340" y="520" width="120" height="40" as="geometry" />
        </mxCell>
        <mxCell id="iIrVy1uz0uTO4pPe2vCX-92" style="edgeStyle=orthogonalEdgeStyle;rounded=0;orthogonalLoop=1;jettySize=auto;html=1;entryX=0.5;entryY=0;entryDx=0;entryDy=0;" edge="1" parent="1" source="15" target="34">
          <mxGeometry relative="1" as="geometry">
            <mxPoint x="560" y="1250" as="targetPoint" />
            <Array as="points">
              <mxPoint x="600" y="680" />
              <mxPoint x="600" y="1280" />
              <mxPoint x="400" y="1280" />
            </Array>
          </mxGeometry>
        </mxCell>
        <mxCell id="15" value="j &amp;lt; n ?" style="rhombus;whiteSpace=wrap;html=1;" vertex="1" parent="1">
          <mxGeometry x="360" y="640" width="80" height="80" as="geometry" />
        </mxCell>
        <mxCell id="16" value="" style="endArrow=classic;html=1;rounded=0;" edge="1" parent="1" source="15" target="18">
          <mxGeometry width="50" height="50" relative="1" as="geometry">
            <mxPoint x="425" y="820" as="sourcePoint" />
            <mxPoint x="425" y="840" as="targetPoint" />
          </mxGeometry>
        </mxCell>
        <mxCell id="iIrVy1uz0uTO4pPe2vCX-82" style="edgeStyle=orthogonalEdgeStyle;rounded=0;orthogonalLoop=1;jettySize=auto;html=1;entryX=0.5;entryY=0;entryDx=0;entryDy=0;" edge="1" parent="1" source="18" target="21">
          <mxGeometry relative="1" as="geometry" />
        </mxCell>
        <mxCell id="iIrVy1uz0uTO4pPe2vCX-83" style="edgeStyle=orthogonalEdgeStyle;rounded=0;orthogonalLoop=1;jettySize=auto;html=1;entryX=1;entryY=0.5;entryDx=0;entryDy=0;" edge="1" parent="1" source="18" target="iIrVy1uz0uTO4pPe2vCX-85">
          <mxGeometry relative="1" as="geometry">
            <mxPoint x="520" y="1120" as="targetPoint" />
            <Array as="points">
              <mxPoint x="520" y="800" />
              <mxPoint x="520" y="1125" />
            </Array>
          </mxGeometry>
        </mxCell>
        <mxCell id="18" value="array[i] &amp;gt; array[j] ?" style="rhombus;whiteSpace=wrap;html=1;" vertex="1" parent="1">
          <mxGeometry x="335" y="760" width="130" height="80" as="geometry" />
        </mxCell>
        <mxCell id="21" value="t = array[i]" style="rounded=0;whiteSpace=wrap;html=1;" vertex="1" parent="1">
          <mxGeometry x="340" y="880" width="120" height="40" as="geometry" />
        </mxCell>
        <mxCell id="22" value="" style="endArrow=classic;html=1;rounded=0;" edge="1" parent="1" source="21" target="23">
          <mxGeometry width="50" height="50" relative="1" as="geometry">
            <mxPoint x="400" y="1040" as="sourcePoint" />
            <mxPoint x="450" y="990" as="targetPoint" />
          </mxGeometry>
        </mxCell>
        <mxCell id="23" value="array[i] = array[j]" style="rounded=0;whiteSpace=wrap;html=1;" vertex="1" parent="1">
          <mxGeometry x="340" y="960" width="120" height="40" as="geometry" />
        </mxCell>
        <mxCell id="24" value="" style="endArrow=classic;html=1;rounded=0;" edge="1" parent="1" source="23" target="25">
          <mxGeometry width="50" height="50" relative="1" as="geometry">
            <mxPoint x="400" y="1140" as="sourcePoint" />
            <mxPoint x="450" y="1090" as="targetPoint" />
          </mxGeometry>
        </mxCell>
        <mxCell id="iIrVy1uz0uTO4pPe2vCX-86" value="" style="edgeStyle=orthogonalEdgeStyle;rounded=0;orthogonalLoop=1;jettySize=auto;html=1;" edge="1" parent="1" source="25" target="iIrVy1uz0uTO4pPe2vCX-85">
          <mxGeometry relative="1" as="geometry" />
        </mxCell>
        <mxCell id="25" value="array[j] = t" style="rounded=0;whiteSpace=wrap;html=1;" vertex="1" parent="1">
          <mxGeometry x="340" y="1040" width="120" height="40" as="geometry" />
        </mxCell>
        <mxCell id="iIrVy1uz0uTO4pPe2vCX-91" style="edgeStyle=orthogonalEdgeStyle;rounded=0;orthogonalLoop=1;jettySize=auto;html=1;entryX=0;entryY=0.5;entryDx=0;entryDy=0;" edge="1" parent="1" source="28" target="iIrVy1uz0uTO4pPe2vCX-88">
          <mxGeometry relative="1" as="geometry">
            <Array as="points">
              <mxPoint x="400" y="1240" />
              <mxPoint x="280" y="1240" />
              <mxPoint x="280" y="605" />
            </Array>
          </mxGeometry>
        </mxCell>
        <mxCell id="28" value="เพิ่มค่า j ขึ้น 1" style="rounded=0;whiteSpace=wrap;html=1;" vertex="1" parent="1">
          <mxGeometry x="340" y="1160" width="120" height="40" as="geometry" />
        </mxCell>
        <mxCell id="iIrVy1uz0uTO4pPe2vCX-97" style="edgeStyle=orthogonalEdgeStyle;rounded=0;orthogonalLoop=1;jettySize=auto;html=1;entryX=0;entryY=0.5;entryDx=0;entryDy=0;" edge="1" parent="1" source="34" target="iIrVy1uz0uTO4pPe2vCX-93">
          <mxGeometry relative="1" as="geometry">
            <Array as="points">
              <mxPoint x="400" y="1400" />
              <mxPoint x="200" y="1400" />
              <mxPoint x="200" y="365" />
            </Array>
          </mxGeometry>
        </mxCell>
        <mxCell id="34" value="เพิ่มค่า i ขึ้น 1" style="whiteSpace=wrap;html=1;rounded=0;" vertex="1" parent="1">
          <mxGeometry x="340" y="1320" width="120" height="40" as="geometry" />
        </mxCell>
        <mxCell id="iIrVy1uz0uTO4pPe2vCX-99" value="" style="edgeStyle=orthogonalEdgeStyle;rounded=0;orthogonalLoop=1;jettySize=auto;html=1;" edge="1" parent="1" source="37" target="39">
          <mxGeometry relative="1" as="geometry" />
        </mxCell>
        <mxCell id="37" value="แสดงผล &quot;New Series : &quot;" style="shape=parallelogram;perimeter=parallelogramPerimeter;whiteSpace=wrap;html=1;fixedSize=1;" vertex="1" parent="1">
          <mxGeometry x="300" y="1480" width="200" height="40" as="geometry" />
        </mxCell>
        <mxCell id="iIrVy1uz0uTO4pPe2vCX-103" value="" style="edgeStyle=orthogonalEdgeStyle;rounded=0;orthogonalLoop=1;jettySize=auto;html=1;" edge="1" parent="1" source="39" target="iIrVy1uz0uTO4pPe2vCX-102">
          <mxGeometry relative="1" as="geometry" />
        </mxCell>
        <mxCell id="39" value="กำหนด i = 0" style="rounded=0;whiteSpace=wrap;html=1;" vertex="1" parent="1">
          <mxGeometry x="340" y="1560" width="120" height="40" as="geometry" />
        </mxCell>
        <mxCell id="iIrVy1uz0uTO4pPe2vCX-101" style="edgeStyle=orthogonalEdgeStyle;rounded=0;orthogonalLoop=1;jettySize=auto;html=1;entryX=0.5;entryY=0;entryDx=0;entryDy=0;" edge="1" parent="1" source="41" target="59">
          <mxGeometry relative="1" as="geometry">
            <mxPoint x="680" y="1720" as="targetPoint" />
            <Array as="points">
              <mxPoint x="600" y="1720" />
              <mxPoint x="600" y="2240" />
              <mxPoint x="400" y="2240" />
            </Array>
          </mxGeometry>
        </mxCell>
        <mxCell id="41" value="i &amp;lt; n ?" style="rhombus;whiteSpace=wrap;html=1;" vertex="1" parent="1">
          <mxGeometry x="360" y="1680" width="80" height="80" as="geometry" />
        </mxCell>
        <mxCell id="42" value="" style="endArrow=classic;html=1;rounded=0;" edge="1" parent="1" source="41" target="44">
          <mxGeometry width="50" height="50" relative="1" as="geometry">
            <mxPoint x="690" y="1800" as="sourcePoint" />
            <mxPoint x="690" y="1820" as="targetPoint" />
          </mxGeometry>
        </mxCell>
        <mxCell id="44" value="แสดงผลค่า array[i]" style="shape=parallelogram;perimeter=parallelogramPerimeter;whiteSpace=wrap;html=1;fixedSize=1;" vertex="1" parent="1">
          <mxGeometry x="320" y="1800" width="160" height="40" as="geometry" />
        </mxCell>
        <mxCell id="45" value="" style="endArrow=classic;html=1;rounded=0;" edge="1" parent="1" source="44" target="46">
          <mxGeometry width="50" height="50" relative="1" as="geometry">
            <mxPoint x="660" y="1910" as="sourcePoint" />
            <mxPoint x="710" y="1860" as="targetPoint" />
          </mxGeometry>
        </mxCell>
        <mxCell id="iIrVy1uz0uTO4pPe2vCX-109" style="edgeStyle=orthogonalEdgeStyle;rounded=0;orthogonalLoop=1;jettySize=auto;html=1;entryX=1;entryY=0.5;entryDx=0;entryDy=0;" edge="1" parent="1" source="46" target="iIrVy1uz0uTO4pPe2vCX-106">
          <mxGeometry relative="1" as="geometry">
            <Array as="points">
              <mxPoint x="520" y="1920" />
              <mxPoint x="520" y="2085" />
            </Array>
          </mxGeometry>
        </mxCell>
        <mxCell id="46" value="i &amp;lt; n - 1 ?" style="rhombus;whiteSpace=wrap;html=1;" vertex="1" parent="1">
          <mxGeometry x="345" y="1880" width="110" height="80" as="geometry" />
        </mxCell>
        <mxCell id="47" value="" style="endArrow=classic;html=1;rounded=0;" edge="1" parent="1" source="46" target="49">
          <mxGeometry width="50" height="50" relative="1" as="geometry">
            <mxPoint x="690" y="2020" as="sourcePoint" />
            <mxPoint x="690" y="2040" as="targetPoint" />
          </mxGeometry>
        </mxCell>
        <mxCell id="iIrVy1uz0uTO4pPe2vCX-107" value="" style="edgeStyle=orthogonalEdgeStyle;rounded=0;orthogonalLoop=1;jettySize=auto;html=1;" edge="1" parent="1" source="49" target="iIrVy1uz0uTO4pPe2vCX-106">
          <mxGeometry relative="1" as="geometry" />
        </mxCell>
        <mxCell id="49" value="แสดงผล &quot;, &quot;" style="shape=parallelogram;perimeter=parallelogramPerimeter;whiteSpace=wrap;html=1;fixedSize=1;" vertex="1" parent="1">
          <mxGeometry x="340" y="2000" width="120" height="40" as="geometry" />
        </mxCell>
        <mxCell id="iIrVy1uz0uTO4pPe2vCX-105" style="edgeStyle=orthogonalEdgeStyle;rounded=0;orthogonalLoop=1;jettySize=auto;html=1;entryX=0;entryY=0.5;entryDx=0;entryDy=0;" edge="1" parent="1" source="52" target="iIrVy1uz0uTO4pPe2vCX-102">
          <mxGeometry relative="1" as="geometry">
            <Array as="points">
              <mxPoint x="400" y="2200" />
              <mxPoint x="280" y="2200" />
              <mxPoint x="280" y="1645" />
            </Array>
          </mxGeometry>
        </mxCell>
        <mxCell id="52" value="เพิ่มค่า i ขึ้น 1" style="rounded=0;whiteSpace=wrap;html=1;" vertex="1" parent="1">
          <mxGeometry x="340" y="2120" width="120" height="40" as="geometry" />
        </mxCell>
        <mxCell id="iIrVy1uz0uTO4pPe2vCX-113" value="" style="edgeStyle=orthogonalEdgeStyle;rounded=0;orthogonalLoop=1;jettySize=auto;html=1;" edge="1" parent="1" source="59" target="iIrVy1uz0uTO4pPe2vCX-112">
          <mxGeometry relative="1" as="geometry" />
        </mxCell>
        <mxCell id="59" value="กำหนด i = 0" style="rounded=0;whiteSpace=wrap;html=1;" vertex="1" parent="1">
          <mxGeometry x="340" y="2278" width="120" height="42" as="geometry" />
        </mxCell>
        <mxCell id="iIrVy1uz0uTO4pPe2vCX-123" style="edgeStyle=orthogonalEdgeStyle;rounded=0;orthogonalLoop=1;jettySize=auto;html=1;" edge="1" parent="1" source="61" target="75">
          <mxGeometry relative="1" as="geometry">
            <Array as="points">
              <mxPoint x="600" y="2440" />
              <mxPoint x="600" y="2880" />
              <mxPoint x="400" y="2880" />
            </Array>
          </mxGeometry>
        </mxCell>
        <mxCell id="61" value="i &amp;lt; n ?" style="rhombus;whiteSpace=wrap;html=1;" vertex="1" parent="1">
          <mxGeometry x="360" y="2400" width="80" height="80" as="geometry" />
        </mxCell>
        <mxCell id="62" value="" style="endArrow=classic;html=1;rounded=0;" edge="1" parent="1" source="61" target="64">
          <mxGeometry width="50" height="50" relative="1" as="geometry">
            <mxPoint x="1240" y="2600" as="sourcePoint" />
            <mxPoint x="1240" y="2580" as="targetPoint" />
          </mxGeometry>
        </mxCell>
        <mxCell id="iIrVy1uz0uTO4pPe2vCX-117" value="" style="edgeStyle=orthogonalEdgeStyle;rounded=0;orthogonalLoop=1;jettySize=auto;html=1;" edge="1" parent="1" source="64" target="67">
          <mxGeometry relative="1" as="geometry" />
        </mxCell>
        <mxCell id="iIrVy1uz0uTO4pPe2vCX-122" style="edgeStyle=orthogonalEdgeStyle;rounded=0;orthogonalLoop=1;jettySize=auto;html=1;entryX=1;entryY=0.5;entryDx=0;entryDy=0;" edge="1" parent="1" source="64" target="iIrVy1uz0uTO4pPe2vCX-118">
          <mxGeometry relative="1" as="geometry">
            <Array as="points">
              <mxPoint x="520" y="2560" />
              <mxPoint x="520" y="2725" />
            </Array>
          </mxGeometry>
        </mxCell>
        <mxCell id="64" value="array[i] == 32 ?" style="rhombus;whiteSpace=wrap;html=1;" vertex="1" parent="1">
          <mxGeometry x="335" y="2520" width="130" height="80" as="geometry" />
        </mxCell>
        <mxCell id="iIrVy1uz0uTO4pPe2vCX-119" value="" style="edgeStyle=orthogonalEdgeStyle;rounded=0;orthogonalLoop=1;jettySize=auto;html=1;" edge="1" parent="1" source="67" target="iIrVy1uz0uTO4pPe2vCX-118">
          <mxGeometry relative="1" as="geometry" />
        </mxCell>
        <mxCell id="67" value="pos = i" style="rounded=0;whiteSpace=wrap;html=1;" vertex="1" parent="1">
          <mxGeometry x="340" y="2640" width="120" height="40" as="geometry" />
        </mxCell>
        <mxCell id="iIrVy1uz0uTO4pPe2vCX-121" style="edgeStyle=orthogonalEdgeStyle;rounded=0;orthogonalLoop=1;jettySize=auto;html=1;entryX=0;entryY=0.5;entryDx=0;entryDy=0;" edge="1" parent="1" source="70" target="iIrVy1uz0uTO4pPe2vCX-112">
          <mxGeometry relative="1" as="geometry">
            <Array as="points">
              <mxPoint x="400" y="2840" />
              <mxPoint x="280" y="2840" />
              <mxPoint x="280" y="2365" />
            </Array>
          </mxGeometry>
        </mxCell>
        <mxCell id="70" value="เพิ่มค่า i ขึ้น 1" style="rounded=0;whiteSpace=wrap;html=1;" vertex="1" parent="1">
          <mxGeometry x="340" y="2760" width="120" height="40" as="geometry" />
        </mxCell>
        <mxCell id="75" value="แสดงผล &quot;Pos of 32 : &quot; และค่าของ pos" style="shape=parallelogram;perimeter=parallelogramPerimeter;whiteSpace=wrap;html=1;fixedSize=1;" vertex="1" parent="1">
          <mxGeometry x="280" y="2923" width="240" height="37" as="geometry" />
        </mxCell>
        <mxCell id="76" value="" style="endArrow=classic;html=1;rounded=0;" edge="1" parent="1" source="75" target="77">
          <mxGeometry width="50" height="50" relative="1" as="geometry">
            <mxPoint x="1135" y="2713" as="sourcePoint" />
            <mxPoint x="1185" y="2663" as="targetPoint" />
          </mxGeometry>
        </mxCell>
        <mxCell id="77" value="Stop" style="ellipse;whiteSpace=wrap;html=1;" vertex="1" parent="1">
          <mxGeometry x="340" y="3000" width="120" height="40" as="geometry" />
        </mxCell>
        <mxCell id="iIrVy1uz0uTO4pPe2vCX-79" value="" style="edgeStyle=orthogonalEdgeStyle;rounded=0;orthogonalLoop=1;jettySize=auto;html=1;" edge="1" parent="1" source="iIrVy1uz0uTO4pPe2vCX-77" target="6">
          <mxGeometry relative="1" as="geometry" />
        </mxCell>
        <mxCell id="iIrVy1uz0uTO4pPe2vCX-77" value="ประกาศตัวแปร array, n, i, j, t, pos&lt;br&gt;และกำหนดค่าเริ่มต้นให้&lt;br&gt;array = {15, 7, 25, 3, 73, 32, 45}&lt;br&gt;n = 7" style="rounded=0;whiteSpace=wrap;html=1;" vertex="1" parent="1">
          <mxGeometry x="240" y="80" width="320" height="80" as="geometry" />
        </mxCell>
        <mxCell id="iIrVy1uz0uTO4pPe2vCX-87" value="" style="edgeStyle=orthogonalEdgeStyle;rounded=0;orthogonalLoop=1;jettySize=auto;html=1;" edge="1" parent="1" source="iIrVy1uz0uTO4pPe2vCX-85" target="28">
          <mxGeometry relative="1" as="geometry" />
        </mxCell>
        <mxCell id="iIrVy1uz0uTO4pPe2vCX-85" value="" style="ellipse;whiteSpace=wrap;html=1;aspect=fixed;" vertex="1" parent="1">
          <mxGeometry x="395" y="1120" width="10" height="10" as="geometry" />
        </mxCell>
        <mxCell id="iIrVy1uz0uTO4pPe2vCX-90" value="" style="edgeStyle=orthogonalEdgeStyle;rounded=0;orthogonalLoop=1;jettySize=auto;html=1;" edge="1" parent="1" source="iIrVy1uz0uTO4pPe2vCX-88" target="15">
          <mxGeometry relative="1" as="geometry" />
        </mxCell>
        <mxCell id="iIrVy1uz0uTO4pPe2vCX-88" value="" style="ellipse;whiteSpace=wrap;html=1;aspect=fixed;" vertex="1" parent="1">
          <mxGeometry x="395" y="600" width="10" height="10" as="geometry" />
        </mxCell>
        <mxCell id="iIrVy1uz0uTO4pPe2vCX-96" value="" style="edgeStyle=orthogonalEdgeStyle;rounded=0;orthogonalLoop=1;jettySize=auto;html=1;" edge="1" parent="1" source="iIrVy1uz0uTO4pPe2vCX-93" target="10">
          <mxGeometry relative="1" as="geometry" />
        </mxCell>
        <mxCell id="iIrVy1uz0uTO4pPe2vCX-93" value="" style="ellipse;whiteSpace=wrap;html=1;aspect=fixed;" vertex="1" parent="1">
          <mxGeometry x="395" y="360" width="10" height="10" as="geometry" />
        </mxCell>
        <mxCell id="iIrVy1uz0uTO4pPe2vCX-104" value="" style="edgeStyle=orthogonalEdgeStyle;rounded=0;orthogonalLoop=1;jettySize=auto;html=1;" edge="1" parent="1" source="iIrVy1uz0uTO4pPe2vCX-102" target="41">
          <mxGeometry relative="1" as="geometry" />
        </mxCell>
        <mxCell id="iIrVy1uz0uTO4pPe2vCX-102" value="" style="ellipse;whiteSpace=wrap;html=1;aspect=fixed;" vertex="1" parent="1">
          <mxGeometry x="395" y="1640" width="10" height="10" as="geometry" />
        </mxCell>
        <mxCell id="iIrVy1uz0uTO4pPe2vCX-108" value="" style="edgeStyle=orthogonalEdgeStyle;rounded=0;orthogonalLoop=1;jettySize=auto;html=1;" edge="1" parent="1" source="iIrVy1uz0uTO4pPe2vCX-106" target="52">
          <mxGeometry relative="1" as="geometry" />
        </mxCell>
        <mxCell id="iIrVy1uz0uTO4pPe2vCX-106" value="" style="ellipse;whiteSpace=wrap;html=1;aspect=fixed;" vertex="1" parent="1">
          <mxGeometry x="395" y="2080" width="10" height="10" as="geometry" />
        </mxCell>
        <mxCell id="iIrVy1uz0uTO4pPe2vCX-114" value="" style="edgeStyle=orthogonalEdgeStyle;rounded=0;orthogonalLoop=1;jettySize=auto;html=1;" edge="1" parent="1" source="iIrVy1uz0uTO4pPe2vCX-112" target="61">
          <mxGeometry relative="1" as="geometry" />
        </mxCell>
        <mxCell id="iIrVy1uz0uTO4pPe2vCX-112" value="" style="ellipse;whiteSpace=wrap;html=1;aspect=fixed;" vertex="1" parent="1">
          <mxGeometry x="395" y="2360" width="10" height="10" as="geometry" />
        </mxCell>
        <mxCell id="iIrVy1uz0uTO4pPe2vCX-120" value="" style="edgeStyle=orthogonalEdgeStyle;rounded=0;orthogonalLoop=1;jettySize=auto;html=1;" edge="1" parent="1" source="iIrVy1uz0uTO4pPe2vCX-118" target="70">
          <mxGeometry relative="1" as="geometry" />
        </mxCell>
        <mxCell id="iIrVy1uz0uTO4pPe2vCX-118" value="" style="ellipse;whiteSpace=wrap;html=1;aspect=fixed;" vertex="1" parent="1">
          <mxGeometry x="395" y="2720" width="10" height="10" as="geometry" />
        </mxCell>
      </root>
    </mxGraphModel>
  </diagram>
</mxfile>
